<!-- icon666.com - MILLIONS vector ICONS FREE --><svg version="1.1" id="Capa_1" xmlns="http://www.w3.org/2000/svg" xmlns:xlink="http://www.w3.org/1999/xlink" x="0px" y="0px" viewBox="0 0 512 512" style="enable-background:new 0 0 512 512;" xml:space="preserve"><path style="fill: rgb(209, 214, 255);" d="M256.001,512c-68.38,0-132.667-26.629-181.018-74.98C26.63,388.667,0.001,324.38,0.001,256 S26.629,123.333,74.981,74.981C123.334,26.629,187.62,0,256.001,0s132.667,26.629,181.018,74.981 c48.352,48.352,74.98,112.639,74.98,181.019s-26.628,132.667-74.98,181.019C388.667,485.371,324.38,512,256.001,512z" fill="#FAA55F"></path><path style="fill: rgb(148, 141, 247);" d="M437.019,437.019c48.352-48.352,74.98-112.639,74.98-181.019s-26.628-132.667-74.98-181.019 C388.667,26.629,324.38,0,256.001,0v512C324.38,512,388.667,485.371,437.019,437.019z" fill="#FF6E23"></path><path style="fill: rgb(135, 135, 135);" d="M256.001,463.626c-114.485,0-207.626-93.141-207.626-207.626S141.515,48.374,256.001,48.374 S463.627,141.515,463.627,256S370.486,463.626,256.001,463.626z" fill="#FFE664"></path><path style="fill: rgb(56, 56, 56);" d="M463.627,256c0-114.485-93.141-207.626-207.626-207.626v415.252 C370.486,463.626,463.627,370.486,463.627,256z" fill="#FFC82D"></path><path style="fill: rgb(209, 214, 255);" d="M256.001,240.733c-15.322,0-27.786-12.465-27.786-27.786s12.465-27.786,27.786-27.786h43.053 c8.431,0,15.267-6.835,15.267-15.267s-6.835-15.267-15.267-15.267h-27.786v-21.778c0-8.431-6.835-15.267-15.267-15.267 s-15.267,6.835-15.267,15.267v23.82c-24.775,6.729-43.053,29.404-43.053,56.278c0,32.158,26.162,58.32,58.32,58.32 c15.322,0,27.786,12.465,27.786,27.786c0,15.322-12.465,27.786-27.786,27.786h-43.053c-8.431,0-15.267,6.835-15.267,15.267 s6.835,15.267,15.267,15.267h27.786v21.778c0,8.431,6.835,15.267,15.267,15.267s15.267-6.835,15.267-15.267v-23.82 c24.775-6.729,43.053-29.404,43.053-56.278C314.32,266.895,288.158,240.733,256.001,240.733z" fill="#FAA55F"></path><g><path style="fill: rgb(148, 141, 247);" d="M299.053,185.161c8.431,0,15.267-6.835,15.267-15.267s-6.835-15.267-15.267-15.267h-27.786v-21.778 c0-8.431-6.835-15.267-15.267-15.267v67.578H299.053z" fill="#FF6E23"></path><path style="fill: rgb(148, 141, 247);" d="M271.267,379.151v-23.82c24.775-6.729,43.053-29.404,43.053-56.278 c0-32.158-26.162-58.32-58.32-58.32v30.533c15.322,0,27.786,12.465,27.786,27.786c0,15.322-12.465,27.786-27.786,27.786v67.578 C264.432,394.417,271.267,387.582,271.267,379.151z" fill="#FF6E23"></path></g></svg>