<?xml version="1.0" encoding="UTF-8"?>
<svg xmlns="http://www.w3.org/2000/svg" id="a" width="865.76" height="682.89" viewBox="0 0 865.76 682.89">
  <rect x="40.03" y="35.73" width="788.93" height="377.62" fill="#e3e4e5" stroke="#231f20" stroke-miterlimit="10"></rect>
  <rect x="53.66" y="51.25" width="760.72" height="346.15" fill="#fff" stroke="#231f20" stroke-miterlimit="10"></rect>
  <path d="M642.95,110.83l60.98,.07c9.79,.01,17.72,7.95,17.72,17.74v430.36l-77.86,2.08-.83-450.25Z" fill="#e3e4e5" stroke="#231f20" stroke-miterlimit="10"></path>
  <path d="M598.47,88.66h36.36c6.7,0,12.13,5.44,12.13,12.13v469.16h-60.62V100.79c0-6.7,5.44-12.13,12.13-12.13Z" fill="#efeaf0" stroke="#231f20" stroke-miterlimit="10"></path>
  <rect x="516.62" y="163.43" width="17.51" height="37.72" fill="#e2e3e4" stroke="#231f20" stroke-miterlimit="10"></rect>
  <polygon points="509.89 357.77 536.83 379.99 593.74 379.99 593.74 357.77 509.89 357.77 509.89 357.77" fill="#e2e3e4" stroke="#231f20" stroke-miterlimit="10"></polygon>
  <path d="M555.35,412.66h11.45v47.15c0,3.16-2.57,5.73-5.73,5.73h0c-3.16,0-5.73-2.57-5.73-5.73v-47.15h0Z" fill="#fff" stroke="#231f20" stroke-miterlimit="10"></path>
  <g>
    <path d="M276.49,429.17l-7.93,139.86-200.34,53.35h-.81c-6.17-151.11,27.86-191.44,27.86-191.44l36.51-58.28,138.39,34.47,6.32,22.04Z" fill="#8c00ff" stroke="#231f20" stroke-miterlimit="10"></path>
    <polyline points="268.56 569.03 269.71 568.72 721.64 559 845.3 639.34" fill="none" stroke="#231f20" stroke-miterlimit="10"></polyline>
    <line x1="68.22" y1="622.38" x2="20.46" y2="635.1" fill="none" stroke="#231f20" stroke-miterlimit="10"></line>
    <polygon points="164.7 524.31 670.91 527.86 670.96 582 163.16 584.45 164.7 524.31" fill="#fff" stroke="#231f20" stroke-miterlimit="10"></polygon>
    <polygon points="670.91 527.86 669.22 524.62 172.87 520.3 164.7 524.31 670.91 527.86" fill="#e4e5e6" stroke="#231f20" stroke-miterlimit="10"></polygon>
    <polygon points="426.39 517.37 441.94 516.6 441.94 521.07 426.37 522.31 426.39 517.37" fill="#fff" stroke="#231f20" stroke-miterlimit="10"></polygon>
    <path d="M366.18,495.41s3.45,.19,10.63,4.81c1.67,1.07,3.42,2.01,5.24,2.81,6.71,2.96,22.38,9.18,35.99,9.41,0,0-3.24,9.71-4.01,9.71s-28.83-3.7-28.83-3.7l-18.97-11.56-.05-11.48Z" fill="#fff" stroke="#231f20" stroke-miterlimit="10"></path>
    <path d="M415.3,509.9s-1.67,1.37-1.62,6.5c0,0,10.38,1.12,22.25-.42,0,0,.46-3.55-.31-5.4l-1.39-2.62-5.4-2.31-8.48-.62-5.05,4.87Z" fill="#efeaf0" stroke="#231f20" stroke-miterlimit="10"></path>
    <path d="M326.06,488.08h-3.03c-1.6,0-2.9,1.3-2.9,2.9v12.08c0,1.66,1.39,2.98,3.05,2.9l2.88-.15v-17.73Z" fill="#fff" stroke="#231f20" stroke-miterlimit="10"></path>
    <ellipse cx="326.06" cy="496.94" rx="2.7" ry="8.87" fill="#e4e5e6" stroke="#231f20" stroke-miterlimit="10"></ellipse>
    <path d="M328.22,493.16h10.87v8.02h-10.87c-2.24,0-4.05-1.84-4.01-4.09h0c.04-2.18,1.82-3.93,4.01-3.93Z" fill="#fff" stroke="#231f20" stroke-miterlimit="10"></path>
    <path d="M299.56,453.32l14.55,8.08,2.38,4.62-17.77-11.3c-.36-.23-.49-.71-.28-1.09h0c.22-.39,.72-.54,1.11-.32Z" fill="#fff" stroke="#231f20" stroke-miterlimit="10"></path>
    <path d="M301.93,448.6l25.86,31.12c1.11,1.33,2.12,2.74,3.02,4.22,2.4,3.91,6.74,11.61,7.51,17.24l11.56-3.39-47.03-50.11-.93,.93Z" fill="#e4e5e6" stroke="#231f20" stroke-miterlimit="10"></path>
    <path d="M303.06,447.68h5.04l55.97,51.04-14.19-.93-46.89-49.96c-.05-.06-.01-.15,.07-.15Z" fill="#fff" stroke="#231f20" stroke-miterlimit="10"></path>
    <path d="M285.82,208.91l35.46-20.35-.77,12.03-23.13,71.55s-12.8-10.33-12.95-10.95-3.7-32.38-3.7-32.38l5.09-19.89Z" fill="#e2e3e4" stroke="#231f20" stroke-miterlimit="10"></path>
    <path d="M272.79,132.51l27.6-29.45s5.07,4.34,11.78,2.86l1.12,16.2,5.2,69.04-8.02,8.38c-1.95,2.04-3.24,4.62-3.7,7.4l-1.76,10.69s-8.48,0-14.49-5.09c0,0,9.41-4.93,6.94-12.8l-1.85-5.55,3.7-2.62s-20.35-45.64-26.52-59.06Z" fill="#f9a17f" stroke="#231f20" stroke-miterlimit="10"></path>
    <path d="M269.37,124.12l8.59,2.87-5.17,5.52-3.58-8.21c-.05-.1,.05-.21,.16-.18Z" fill="#fff" stroke="#231f20" stroke-miterlimit="10"></path>
    <path d="M318.29,191.8l-22.53,72.7,28.83-30.22,11.26,6.01-4.2-44.59s-5.95-.89-13.36-3.9Z" fill="#fff" stroke="#231f20" stroke-miterlimit="10"></path>
    <path d="M290.52,212.54l-4.74,16.47c-.89,3.09-.5,6.41,1.08,9.22,3.81,6.75,10.46,19.81,8.9,26.27,0,0-14.65-7.56-34.85-17.73l2.04-65.34,6.29,32.66,26.37-19.89,1.85,5.55s2.93,7.56-6.94,12.8Z" fill="#efeaf0" stroke="#231f20" stroke-miterlimit="10"></path>
    <polygon points="295.76 264.5 332 279.76 324.6 234.28 295.76 264.5" fill="#efeaf0" stroke="#231f20" stroke-miterlimit="10"></polygon>
    <path d="M260.62,131.58l-14.04,10.03,5.62,84.07c.86,12.85-2.32,25.65-9.14,36.57-12.87,20.61-39.06,54.26-85.6,82.9l-25.75,27.45,15.42,14.19s95.36,56.62,128.43,44.03c1.81-.69,3.4-1.89,4.48-3.51,.68-1.02,1.26-2.32,1.47-3.92,.13-1.03,.43-2.72,.62-3.74l1.39-7.34c2.6-13.75,8.02-26.78,15.67-38.49,1.48-2.26,2.67-5.21,3.15-9.06,.72-5.77,3.27-11.15,7.17-15.46,4.41-4.87,9.65-12.37,12.16-22.34l12.64-25.44s5.71-14.49,4.01-31.61l-3.2-29.79-10.52-5.83,7.4,45.49-36.24-15.27-34.85-17.73,2.04-65.34s-.48-40.45-2.34-49.84Z" fill="#8c00ff" stroke="#231f20" stroke-miterlimit="10"></path>
    <path d="M246.58,141.61s-11.83-1.1-30.29,3.32c-3.3,.79-6.64,1.42-9.99,1.9-5.43,.79-13.41,1.78-21.05,2.08-7.05,.28-14.06,1.19-20.92,2.84-21.57,5.19-32.34,12.74-58.22,51.83,0,0-10.49,11.87-19.27,28.22l-46.1,80.64s-6.17,10.49-7.56,31.92l88.2,4.01s-2.16,8.17,5.4,19.27l4.93,4.93,2.02-2.15c13.23-14.1,27.63-27.04,43.09-38.64,18.56-13.92,46.52-37.96,65.67-68.41,7.21-11.46,10.57-24.93,9.67-38.44l-5.57-83.33Z" fill="#efeaf0" stroke="#231f20" stroke-miterlimit="10"></path>
    <path d="M183.67,183.55s3.81,7.46,6.62,19.35c5.26,22.22,.73,45.63-12.33,64.36l-56.59,81.12" fill="none" stroke="#231f20" stroke-linecap="round" stroke-linejoin="round"></path>
    <path d="M321.67,326.95l12.64-25.44c6.17-18.5,4.17-29.88,4.17-29.88l-3.41-31.79,.78,.45-3.38-36.14c31.93,1.33,38.54,54.18,38.54,54.18,4.05,25.4,4.49,46.95,4.43,56.77-.02,3.96,.5,7.9,1.56,11.71l11.13,40.23-55.51,17.27c-1.7-6.17-8.48-11.72-8.48-11.72-8.02-6.17-15.88-22.05-15.88-22.05,0,0,8.94-7.71,13.41-23.59Z" fill="#efeaf0" stroke="#231f20" stroke-miterlimit="10"></path>
    <path d="M343.41,414.84s4.81,22.33,22.17,38.01c.93,.84,1.93,1.6,2.96,2.33,4.41,3.13,16.31,12.03,21.9,20.72,0,0-3.08,15.27,11.1,16.65,0,0,9.25,20.82,19.89,18.04,0,0,2.62-1.23,3.24-3.55l9.41,2.78s-.23,6.4,8.57,8.18c2.47,.5,5.03,.45,7.51,.01l9.82-1.72s4.16-1.54,3.08-10.18c0,0,0-5.4-3.24-10.18,0,0-1.39-2.62-1.85-6.01,0,0-.22-2.87-1.03-4.5-.28-.56-.33-1.19-.18-1.79,.6-2.37,1.24-8.12-6.03-10.06,0,0,2.24-8.97-9.87-10.07-2.54-.23-5.07-.46-7.59-.82-4.74-.67-12.23-1.41-16.62-.21,0,0-4.32-6.48-6.94-20.35l-6.94-31.3s-2.78-15.88-6.78-21.43l-6.17-8.79s-21.28,4.01-21.74,4.63-30.84,12.64-30.84,12.64l6.17,16.96Z" fill="#f9a17f" stroke="#231f20" stroke-miterlimit="10"></path>
    <path d="M414.18,476.05s-1.23,3.85,1.85,8.02c0,0,8.48,13.88,8.63,22.97" fill="none" stroke="#231f20" stroke-linecap="round" stroke-linejoin="round"></path>
    <path d="M420.81,465.26c-.15,.46-3.39,3.85-2.31,8.48,0,0,1.03,5.39-3.03,9.33" fill="none" stroke="#231f20" stroke-linecap="round" stroke-linejoin="round"></path>
    <path d="M417.77,486.57l3.86-.1c1.59-.04,3.16-.37,4.62-1.01s3.81-.84,6.29,2.31" fill="none" stroke="#231f20" stroke-linecap="round" stroke-linejoin="round"></path>
    <path d="M433.61,467.57s-6.94,4.93-5.09,12.8l1.39,5.12" fill="none" stroke="#231f20" stroke-linecap="round" stroke-linejoin="round"></path>
    <line x1="433.92" y1="476.82" x2="429.14" y2="483.14" fill="none" stroke="#231f20" stroke-linecap="round" stroke-linejoin="round"></line>
    <path d="M423.16,498.71l12.45,3.08s8.94,3.39,12.49-18.97" fill="none" stroke="#231f20" stroke-linecap="round" stroke-linejoin="round"></path>
    <path d="M434.07,509.82l8.63,2s9.41,1.54,11.56-12.8" fill="none" stroke="#231f20" stroke-linecap="round" stroke-linejoin="round"></path>
    <line x1="401.54" y1="492.55" x2="396.76" y2="481.91" fill="none" stroke="#231f20" stroke-linecap="round" stroke-linejoin="round"></line>
    <path d="M266.78,452s10.99,1.59,15.67,6.11l-20.88-2.18s-3.14-.56-3.89-1.91c-.15-.27-.05-.62,.22-.78,.75-.45,2.92-1.24,8.88-1.24Z" fill="#efeaf0" stroke="#231f20" stroke-miterlimit="10"></path>
    <path d="M328.76,468.65l27.29,29.91,5.86,1.23-28.53-35.77s-6.31-11.36-13.71-8.67c-.69,.25-.81,1.2-.19,1.59,.42,.26,1.04,.48,1.93,.48,.78,0,1.55,.12,2.29,.37,2.52,.88,6.98,3.5,5.06,10.85Z" fill="#e4e5e6" stroke="#231f20" stroke-miterlimit="10"></path>
    <path d="M447.93,521.83l-2.87-1.77c-.21-.13-.35-.37-.35-.62l-.02-1.12s-1.51-.15-2.82-.47l.07,3.23-3.07,.3s2.75,3.55,9.05,.49c.01,0,.01-.02,0-.03Z" fill="#e4e5e6" stroke="#231f20" stroke-miterlimit="10"></path>
    <path d="M436.01,514.62s1.36,1.47,2.8,2.11l-12.42,.63s-6.08-.19-8.53-.63c0,0,8.66,.48,18.07-.75l.08-1.36Z" fill="#e4e5e6" stroke="#231f20" stroke-miterlimit="10"></path>
    <path d="M414.34,511.67s7.71,1.39,20.04,.31" fill="none" stroke="#231f20" stroke-linecap="round" stroke-linejoin="round"></path>
    <rect x="311.83" y="77.99" width="83.17" height="125.49" rx="41.58" ry="41.58" transform="translate(231.71 -219.68) rotate(49.63)" fill="#f9a17f" stroke="#231f20" stroke-miterlimit="10"></rect>
    <path d="M300.39,103.06s6.57-11.33,9.61-22.04c1.89-6.64,5.04-12.87,9.42-18.21,10.85-13.23,32.95-29.41,69.48-10.94,0,0,26.83-1.08,31.3,24.05,0,0-.15,20.35,13.41,32.53,0,0,9.58,7.1,9.15,18.6-.61,16.07-19.01,24.87-32.13,15.57-6.36-4.51-12.02-13.25-13.72-29.7,0,0-20.2,5.09-24.67-15.27,0,0,1.38,19.67-14.58,13.54-3.02-1.16-6.16-1.99-9.37-2.38-4.99-.61-11.83-1-16.41,.53-3.31,1.1-6.8,1.58-10.27,1.25-6.36-.6-15.42-2.38-21.23-7.54Z" fill="#231f20" stroke="#231f20" stroke-miterlimit="10"></path>
    <ellipse cx="319.74" cy="109.92" rx="13.8" ry="8.56" transform="translate(73.2 341.3) rotate(-62.15)" fill="#f9a17f" stroke="#231f20" stroke-miterlimit="10"></ellipse>
    <path d="M269.01,124.09l-14.93,12.17s-.03,.04-.03,.07l15.16,77.63c.01,.05,.07,.08,.12,.04l29.93-22.41s.04-.06,.02-.09c-.81-1.8-22.11-49.02-26.5-59l-3.66-8.39s-.08-.06-.11-.03Z" fill="#fff" stroke="#231f20" stroke-miterlimit="10"></path>
    <path d="M333.08,380.6s-9.25,8.22-1.24,19.65c.38,.54,.82,1.02,1.31,1.45l.37,.32c1.39,1.2,2.3,2.84,2.62,4.65,.56,3.19,2.25,8.16,7.27,8.16l.58-2.06c1.22-4.31,3.72-8.15,7.17-11.01,6.4-5.32,17.62-13.28,29.1-14.99,0,0,9.41-1.7,15.73,2.62l-.35-4.67c-.15-2.07,.16-4.15,.87-6.1,1.5-4.12,2.49-12.21-11.47-14.36,0,0-12.34-4.78-26.37,1.7,0,0-14.65,4.32-25.6,14.65Z" fill="#8c00ff" stroke="#231f20" stroke-miterlimit="10"></path>
    <polygon points="284.78 504.03 301.7 513.13 244.03 518.53 284.78 504.03" fill="#efeaf0" stroke="#231f20" stroke-miterlimit="10"></polygon>
    <path d="M39.04,380.14s34.23,47.03,110.4,79.56c0,0,39.01,20.82,55.66,32.07,0,0,17.12,19.27,45.18,22.82l25.75-1.24c2.74-.13,5.11-2.03,5.75-4.7,.25-1.06,.38-2.31,.26-3.77,0,0,9.87-1.23,8.02-11.1,0,0,6.17-1.54,6.48-6.01,0,0,1.23-4.16-2.47-8.17,0,0,5.86-.93,5.71-6.78,0,0,.93-4.93-6.32-9.1l-7.17-4.1c-1.68-.96-3.54-1.55-5.46-1.75l-18.8-1.89c-1.16-.12-2.29-.46-3.3-1.06-1.82-1.07-2.74-2.72,8.05-2.92,0,0-3.55-4.16-10.33-2.16l-26.06,5.4s-9.25-.31-16.5-6.48l-38.12-27.9c-6.83-5-12.84-11.04-17.8-17.91-8.39-11.62-22.38-29.86-31.2-35.29l-78.33,4.47-9.41,8.02Z" fill="#f9a17f" stroke="#231f20" stroke-miterlimit="10"></path>
    <path d="M294.07,479.6l-9.71-2.78s-2.62-.93-2.93-3.24" fill="none" stroke="#231f20" stroke-linecap="round" stroke-linejoin="round"></path>
    <path d="M290.06,493.78s-5.86,.31-13.26-2.62" fill="none" stroke="#231f20" stroke-linecap="round" stroke-linejoin="round"></path>
    <path d="M282.04,504.88s-6.48-2.31-15.42-.31" fill="none" stroke="#231f20" stroke-linecap="round" stroke-linejoin="round"></path>
    <path d="M34.68,373.35c-.59,2.15-1.21,6.79,4.36,6.79l15.88-1.7s44.73,.7,70.65-8.77c1.64-.6,2.27-2.59,1.29-4.03s-1.95-3.34-2.24-5.55c0,0-.05-.6-.19-1.49-.51-3.24-.41-6.58,.51-9.73,.38-1.31,.28-3.19-.94-5.89,0,0,1.09-4.6-8.75-7.04-2.51-.62-4.93-1.53-7.23-2.69-2.63-1.32-7.15-2.84-13.93-2.76,0,0-7.85-.56-16.55-.07-7.72,.44-15.26,2.43-22.22,5.81-4.25,2.07-10.93,4.75-16.9,4.75,0,0-10.79-2.78-6.01,12.49l.96,2.68c.61,1.71,.73,3.54,.41,5.33-.21,1.19-.16,2.9,.79,5.1,0,0,.18,.47,.34,1.27,.36,1.82,.26,3.71-.23,5.5Z" fill="#8c00ff" stroke="#231f20" stroke-miterlimit="10"></path>
    <path d="M319.79,455.3c.99-.43,7.97-2.9,17.53,8.8l43.25,46.18-22.36-10.79-19.97-27.68s-9.87-16.5-18.44-16.43c-.04,0-.05-.06-.01-.08Z" fill="#fff" stroke="#231f20" stroke-miterlimit="10"></path>
    <path d="M234.55,525.08l203.69,1.23s1.7-8.94-15.57-9.1c0,0-31.4-2.01-47.05-10.58-.87-.47-1.69-1.02-2.48-1.61-3.88-2.91-21.14-14.38-39.1-3.35-3.95,2.43-8.21,4.32-12.71,5.48-5.26,1.36-12.7,2.65-22.63,2.98l-51.19,6.63s-12.49,0-12.95,8.33Z" fill="#fff" stroke="#231f20" stroke-miterlimit="10"></path>
    <path d="M431.26,518.37s5.36-.2,7.48,2.74c.59,.81,1.4,1.44,2.36,1.71,1.45,.41,3.71,.5,6.79-.94,.03-.01,.07,0,.07,.04l.3,1.94-10.02,2.47s.93-5.71-6.98-7.94Z" fill="#fff" stroke="#231f20" stroke-miterlimit="10"></path>
  </g>
  <path d="M592.4,115.94l-82.52,15.83v36.71h18.86v26.61h-18.86v161.83c0,.47,.38,.85,.85,.85h83.01l-1.35-241.83Z" fill="#fff" stroke="#231f20" stroke-miterlimit="10"></path>
  <rect x="519.65" y="206.54" width="24.59" height="10.1" rx="5.05" ry="5.05" fill="#e2e3e4" stroke="#231f20" stroke-miterlimit="10"></rect>
  <rect x="519.65" y="221.7" width="24.59" height="10.1" rx="5.05" ry="5.05" fill="#e2e3e4" stroke="#231f20" stroke-miterlimit="10"></rect>
  <rect x="519.65" y="236.85" width="24.59" height="10.1" rx="5.05" ry="5.05" fill="#e2e3e4" stroke="#231f20" stroke-miterlimit="10"></rect>
  <rect x="519.65" y="252.01" width="24.59" height="10.1" rx="5.05" ry="5.05" fill="#e2e3e4" stroke="#231f20" stroke-miterlimit="10"></rect>
  <rect x="519.65" y="267.5" width="24.59" height="10.1" rx="5.05" ry="5.05" fill="#e2e3e4" stroke="#231f20" stroke-miterlimit="10"></rect>
  <rect x="519.65" y="282.66" width="24.59" height="10.1" rx="5.05" ry="5.05" fill="#e2e3e4" stroke="#231f20" stroke-miterlimit="10"></rect>
  <rect x="519.65" y="297.81" width="24.59" height="10.1" rx="5.05" ry="5.05" fill="#e2e3e4" stroke="#231f20" stroke-miterlimit="10"></rect>
  <rect x="519.65" y="312.97" width="24.59" height="10.1" rx="5.05" ry="5.05" fill="#e2e3e4" stroke="#231f20" stroke-miterlimit="10"></rect>
  <path d="M547.27,371.57v40.24c0,1.96,1.59,3.54,3.54,3.54h19.86c1.96,0,3.54-1.59,3.54-3.54v-40.24h-26.94Z" fill="#e2e3e4" stroke="#231f20" stroke-miterlimit="10"></path>
</svg>
